<svg width="24" height="25" viewBox="0 0 24 25" fill="none" xmlns="http://www.w3.org/2000/svg">
<path d="M16.017 2.16992H7.947C6.37015 2.17177 4.85844 2.79906 3.74353 3.91416C2.62862 5.02925 2.00159 6.54107 2 8.11792L2 16.1879C2.00185 17.7648 2.62914 19.2765 3.74424 20.3914C4.85933 21.5063 6.37115 22.1333 7.948 22.1349H16.018C17.5948 22.1331 19.1066 21.5058 20.2215 20.3907C21.3364 19.2756 21.9634 17.7638 21.965 16.1869V8.11692C21.9631 6.54008 21.3359 5.02836 20.2208 3.91345C19.1057 2.79855 17.5938 2.17151 16.017 2.16992V2.16992ZM19.957 16.1869C19.957 16.7043 19.8551 17.2167 19.6571 17.6947C19.4591 18.1727 19.1689 18.6071 18.803 18.9729C18.4371 19.3388 18.0028 19.629 17.5248 19.827C17.0468 20.025 16.5344 20.1269 16.017 20.1269H7.947C6.90222 20.1267 5.90032 19.7114 5.16165 18.9726C4.42297 18.2337 4.008 17.2317 4.008 16.1869V8.11692C4.00827 7.07214 4.42349 6.07024 5.16235 5.33157C5.90122 4.59289 6.90322 4.17792 7.948 4.17792H16.018C17.0628 4.17819 18.0647 4.59341 18.8034 5.33227C19.542 6.07114 19.957 7.07314 19.957 8.11792V16.1879V16.1869Z" fill="black"/>
<path d="M11.9819 6.98901C10.6134 6.99113 9.30148 7.5358 8.33385 8.50362C7.36621 9.47144 6.8218 10.7834 6.81995 12.152C6.82153 13.5209 7.36597 14.8333 8.33385 15.8014C9.30172 16.7695 10.614 17.3142 11.9829 17.316C13.352 17.3144 14.6646 16.7699 15.6327 15.8018C16.6008 14.8337 17.1454 13.5211 17.1469 12.152C17.1448 10.7831 16.5999 9.4709 15.6316 8.50321C14.6634 7.53552 13.3509 6.99134 11.9819 6.99001V6.98901ZM11.9819 15.308C11.1452 15.308 10.3427 14.9756 9.75102 14.3839C9.15935 13.7923 8.82695 12.9898 8.82695 12.153C8.82695 11.3163 9.15935 10.5138 9.75102 9.92209C10.3427 9.33041 11.1452 8.99801 11.9819 8.99801C12.8187 8.99801 13.6212 9.33041 14.2129 9.92209C14.8045 10.5138 15.1369 11.3163 15.1369 12.153C15.1369 12.9898 14.8045 13.7923 14.2129 14.3839C13.6212 14.9756 12.8187 15.308 11.9819 15.308Z" fill="black"/>
<path d="M17.1559 8.26502C17.8391 8.26502 18.3929 7.71119 18.3929 7.02802C18.3929 6.34484 17.8391 5.79102 17.1559 5.79102C16.4728 5.79102 15.9189 6.34484 15.9189 7.02802C15.9189 7.71119 16.4728 8.26502 17.1559 8.26502Z" fill="black"/>
</svg>
