<svg width="24" height="25" viewBox="0 0 24 25" fill="none" xmlns="http://www.w3.org/2000/svg">
<path d="M21.959 13.8888V21.2678H17.681V14.3828C17.681 12.6528 17.062 11.4728 15.514 11.4728C14.332 11.4728 13.628 12.2688 13.319 13.0378C13.206 13.3128 13.177 13.6958 13.177 14.0808V21.2678H8.897C8.897 21.2678 8.955 9.6078 8.897 8.3988H13.177V10.2228L13.149 10.2648H13.177V10.2228C13.745 9.3478 14.76 8.0968 17.033 8.0968C19.848 8.0968 21.959 9.9368 21.959 13.8888ZM4.421 2.1958C2.958 2.1958 2 3.1558 2 4.4188C2 5.6538 2.93 6.6428 4.365 6.6428H4.393C5.886 6.6428 6.813 5.6538 6.813 4.4188C6.787 3.1558 5.887 2.1958 4.422 2.1958H4.421ZM2.254 21.2678H6.532V8.3988H2.254V21.2678Z" fill="black"/>
</svg>
