<svg width="24" height="25" viewBox="0 0 24 25" fill="none" xmlns="http://www.w3.org/2000/svg">
<path d="M17.812 5.18704H6.145C3.855 5.18704 2 7.02204 2 9.28604V15.054C2 17.318 3.856 19.154 6.145 19.154H17.812C20.102 19.154 21.957 17.318 21.957 15.054V9.28604C21.957 7.02204 20.101 5.18604 17.812 5.18604V5.18704ZM15.009 12.45L9.552 15.025C9.51872 15.0411 9.48192 15.0484 9.44503 15.0464C9.40815 15.0444 9.37237 15.0331 9.34103 15.0135C9.3097 14.9939 9.28382 14.9668 9.2658 14.9345C9.24779 14.9023 9.23822 14.866 9.238 14.829V9.52004C9.23867 9.48291 9.24872 9.44655 9.26722 9.41436C9.28573 9.38217 9.31208 9.35518 9.34382 9.33591C9.37556 9.31665 9.41167 9.30573 9.44877 9.30418C9.48587 9.30262 9.52276 9.31049 9.556 9.32704L15.014 12.062C15.0504 12.0802 15.0809 12.1082 15.102 12.1429C15.1232 12.1775 15.1341 12.2175 15.1336 12.2581C15.1331 12.2987 15.1211 12.3384 15.0991 12.3725C15.077 12.4066 15.0458 12.4338 15.009 12.451V12.45Z" fill="black"/>
</svg>
