<svg
            width="40"
            height="40"
            viewBox="0 0 100 100"
            fill="none"
            xmlns="http://www.w3.org/2000/svg"
          >
            <path
              d="M0 50C0 22.3858 22.3858 0 50 0V0C77.6142 0 100 22.3858 100 50V50C100 77.6142 77.6142 100 50 100V100C22.3858 100 0 77.6142 0 50V50Z"
              fill="#FFC229"
            />
            <path
              d="M48.332 27L52.2411 30.5875L27.3256 61.476L23 57.9338L48.332 27Z"
              fill="#FFFFFF"
            />
            <path
              d="M77.9951 54.145L74.1514 58.2051L45.5 31L48.5 27L77.9951 54.145Z"
              fill="#FFFFFF"
            />
            <path
              d="M49.3623 41.0935L53 45L34.1431 67.3658L29.9041 63.7204L49.3623 41.0935Z"
              fill="#FFFFFF"
            />
            <rect
              x="70.916"
              y="62.6736"
              width="5.5909"
              height="30.1393"
              transform="rotate(134.812 70.916 62.6736)"
              fill="#FFFFFF"
            />
          </svg>