<svg width="24" height="25" viewBox="0 0 24 25" fill="none" xmlns="http://www.w3.org/2000/svg">
<path d="M22 6.07684C21.2504 6.40422 20.4565 6.61888 19.644 6.71384C20.4968 6.21307 21.138 5.41895 21.448 4.47984C20.64 4.95017 19.7587 5.28144 18.841 5.45984C18.4545 5.05505 17.9897 4.73323 17.4748 4.51402C16.9598 4.29481 16.4056 4.18281 15.846 4.18484C13.58 4.18484 11.743 5.99484 11.743 8.22484C11.743 8.54084 11.779 8.84984 11.849 9.14484C10.2236 9.06754 8.63212 8.65225 7.17617 7.92548C5.72022 7.19871 4.43176 6.17642 3.393 4.92384C3.02883 5.53824 2.83742 6.23962 2.839 6.95384C2.8397 7.62181 3.00683 8.27907 3.32529 8.86624C3.64375 9.4534 4.1035 9.95195 4.663 10.3168C4.01248 10.2958 3.37602 10.1222 2.805 9.80984V9.85984C2.805 11.8178 4.22 13.4508 6.095 13.8228C5.74261 13.9163 5.37958 13.9637 5.015 13.9638C4.75 13.9638 4.493 13.9388 4.242 13.8888C4.51008 14.6968 5.02311 15.4012 5.70982 15.9042C6.39653 16.4072 7.22284 16.6839 8.074 16.6958C6.61407 17.8204 4.82182 18.4279 2.979 18.4228C2.647 18.4228 2.321 18.4028 2 18.3668C3.88125 19.5575 6.06259 20.1881 8.289 20.1848C15.836 20.1848 19.962 14.0278 19.962 8.68884L19.948 8.16584C20.7529 7.59951 21.4481 6.89169 22 6.07684Z" fill="black"/>
</svg>
